<svg width="114" height="32" viewBox="0 0 114 32" fill="none" xmlns="http://www.w3.org/2000/svg">
<g clip-path="url(#clip0)">
<path d="M50.4684 4.29939C50.4093 4.40248 50.3206 4.49083 50.232 4.56447C50.1433 4.62337 50.0251 4.65282 49.9069 4.65282C49.774 4.65282 49.641 4.60864 49.5376 4.54974L49.0944 4.31412C48.9171 4.21104 48.725 4.13741 48.5182 4.0785C48.2818 4.00487 48.0306 3.96069 47.7795 3.97542C47.3067 3.97542 46.9521 4.0785 46.7157 4.28467C46.4793 4.49083 46.3464 4.80008 46.3612 5.10933C46.3612 5.3155 46.435 5.50694 46.568 5.6542C46.7305 5.81619 46.9078 5.934 47.1146 6.02236C47.3658 6.14017 47.6317 6.24325 47.8977 6.31688C48.1931 6.40524 48.4886 6.50832 48.7989 6.6114C49.1091 6.71449 49.4046 6.84702 49.7001 6.99429C49.9956 7.14155 50.2467 7.31826 50.4831 7.55388C50.7195 7.7895 50.9116 8.0693 51.0298 8.37855C51.1775 8.7467 51.2514 9.14431 51.2366 9.54192C51.2366 10.0279 51.148 10.5138 50.9707 10.9556C50.7934 11.3827 50.5422 11.7803 50.2172 12.1043C49.8626 12.443 49.4489 12.708 48.9762 12.87C48.4443 13.0615 47.8829 13.1646 47.3067 13.1498C46.9521 13.1498 46.6123 13.1204 46.2725 13.0467C45.9179 12.9731 45.5781 12.8848 45.2383 12.7522C44.9133 12.6344 44.603 12.4724 44.3076 12.2957C44.0268 12.1337 43.7757 11.9276 43.5541 11.7067L44.3076 10.5286C44.3667 10.4402 44.4553 10.3666 44.5439 10.3224C44.6474 10.2635 44.7508 10.234 44.869 10.234C45.0315 10.234 45.194 10.293 45.327 10.3813C45.4747 10.4844 45.652 10.5875 45.8441 10.6906C46.0509 10.8084 46.2725 10.9262 46.5089 10.9998C46.7896 11.1029 47.0999 11.1471 47.3953 11.1471C47.8533 11.1471 48.2079 11.044 48.4739 10.8378C48.7398 10.6317 48.858 10.3077 48.858 9.88062C48.8728 9.65972 48.7989 9.43883 48.6511 9.26212C48.5034 9.0854 48.3113 8.95287 48.0897 8.84978C47.8386 8.73198 47.5726 8.64362 47.3067 8.56999C47.0112 8.49636 46.7157 8.408 46.4055 8.30492C46.0952 8.20183 45.7997 8.08402 45.5043 7.95149C45.2088 7.80423 44.9576 7.61278 44.736 7.37717C44.4996 7.12682 44.3076 6.8323 44.1894 6.50832C44.0416 6.09599 43.9678 5.6542 43.9825 5.22714C43.9825 4.81481 44.0712 4.40248 44.2337 4.03432C44.3962 3.63672 44.6474 3.28329 44.9576 2.98876C45.2974 2.66479 45.6963 2.41444 46.1395 2.25245C46.6566 2.06101 47.1885 1.97266 47.7351 1.97266C48.0602 1.97266 48.3852 2.00211 48.7102 2.04629C49.0205 2.09047 49.316 2.17882 49.6115 2.28191C49.8922 2.38499 50.1581 2.51753 50.4093 2.66479C50.6456 2.79732 50.8673 2.95931 51.0741 3.15075L50.4684 4.29939Z" fill="#234465"/>
<path d="M56.0677 5.10938C56.6144 5.10938 57.161 5.19773 57.6781 5.38917C58.1509 5.56589 58.5646 5.83096 58.9339 6.18439C59.2885 6.53781 59.5692 6.96487 59.7465 7.43611C59.9533 7.96625 60.042 8.52585 60.042 9.10017C60.042 9.67449 59.9533 10.2341 59.7465 10.779C59.5692 11.2502 59.2885 11.692 58.9339 12.0454C58.5793 12.3988 58.1509 12.6639 57.6781 12.8406C57.161 13.0321 56.6144 13.1351 56.0677 13.1204C55.5063 13.1204 54.9597 13.0321 54.4426 12.8406C53.9698 12.6639 53.5414 12.3841 53.1868 12.0454C52.8322 11.692 52.5515 11.2502 52.3742 10.779C52.1674 10.2488 52.0787 9.67449 52.0787 9.10017C52.0787 8.54058 52.1674 7.96625 52.3742 7.43611C52.5515 6.96487 52.8322 6.53781 53.1868 6.16966C53.5561 5.81623 53.9846 5.55116 54.4574 5.37445C54.9597 5.19773 55.5063 5.10938 56.0677 5.10938ZM56.0677 11.3975C56.5996 11.3975 56.9985 11.206 57.2497 10.8379C57.5008 10.4697 57.6338 9.88066 57.6338 9.1149C57.6338 8.34914 57.5008 7.77481 57.2497 7.39193C56.9985 7.00905 56.5996 6.83234 56.0677 6.83234C55.5211 6.83234 55.1074 7.02378 54.8563 7.39193C54.6051 7.76009 54.4721 8.33441 54.4721 9.1149C54.4721 9.88066 54.6051 10.455 54.8563 10.8379C55.1074 11.2207 55.5211 11.3975 56.0677 11.3975Z" fill="#234465"/>
<path d="M69.0098 6.84739V10.7056C69.0098 10.8676 69.0541 11.0149 69.1428 11.1474C69.2314 11.2652 69.3792 11.3389 69.5269 11.3241C69.6008 11.3241 69.6747 11.3241 69.7485 11.2947C69.7929 11.28 69.8519 11.2652 69.8963 11.2358L70.0145 11.1769C70.0588 11.1622 70.1031 11.1474 70.1474 11.1474C70.2065 11.1474 70.2656 11.1622 70.3099 11.1916C70.3543 11.2358 70.3986 11.28 70.4429 11.3389L71.1521 12.4581C70.8418 12.679 70.502 12.8557 70.1327 12.9588C69.7485 13.0766 69.3644 13.1355 68.9655 13.1355C68.6257 13.1355 68.3007 13.0913 67.9904 12.9735C67.4438 12.782 67.0153 12.3403 66.838 11.7954C66.7346 11.5009 66.6903 11.1769 66.6903 10.8529V6.84739H63.898V13.0177H61.5637V6.83266L61.0466 6.72958C60.8988 6.70012 60.7511 6.64122 60.6181 6.53814C60.4999 6.44978 60.4408 6.30252 60.4556 6.16998V5.25696H61.5489V4.81517C61.5489 4.40284 61.6228 3.99051 61.7705 3.60763C61.9035 3.2542 62.1103 2.94495 62.391 2.67988C62.6717 2.4148 63.0115 2.22336 63.3661 2.09083C63.7946 1.94357 64.2378 1.86994 64.681 1.88466C64.8583 1.88466 65.0356 1.88466 65.2129 1.91411C65.3902 1.94357 65.5527 1.97302 65.7152 2.0172L65.6709 3.15111C65.6709 3.22474 65.6413 3.28365 65.6118 3.35728C65.5822 3.41619 65.5231 3.46036 65.4788 3.48982C65.4197 3.51927 65.3606 3.54872 65.3015 3.56345C65.2424 3.57817 65.1685 3.57817 65.1095 3.57817C64.9322 3.57817 64.7401 3.5929 64.5628 3.63708C64.4151 3.66653 64.2673 3.74016 64.1639 3.85797C64.0457 3.97578 63.9718 4.10832 63.9275 4.2703C63.8684 4.47647 63.8389 4.68264 63.8389 4.90353V5.27168H66.8232L67.296 3.35728C67.3551 3.12166 67.5324 3.00385 67.8131 3.00385H69.0246V5.27168H70.96V6.86211L69.0098 6.84739Z" fill="#234465"/>
<path d="M83.4147 5.24519L80.9918 13.0206H79.1007C79.012 13.0206 78.9234 12.9912 78.8495 12.9323C78.7609 12.8586 78.7165 12.7555 78.687 12.6377L77.5789 8.76475C77.5198 8.58804 77.4755 8.41132 77.4312 8.24934C77.3869 8.07262 77.3425 7.91063 77.313 7.73392C77.2835 7.91063 77.2391 8.08735 77.1948 8.26406C77.1505 8.44078 77.1062 8.61749 77.0471 8.79421L75.9242 12.6525C75.8799 12.8881 75.6731 13.0501 75.4367 13.0353H73.6343L71.2113 5.25992H73.0581C73.2058 5.25992 73.3535 5.28937 73.4717 5.37773C73.5752 5.45136 73.6638 5.55444 73.6933 5.67225L74.4764 9.14763C74.5355 9.41271 74.5946 9.66305 74.6537 9.9134C74.698 10.1637 74.7423 10.4141 74.7866 10.6644C74.8457 10.4141 74.9196 10.1637 74.9935 9.9134C75.0673 9.66305 75.1412 9.41271 75.2299 9.14763L76.2049 5.65753C76.2493 5.53972 76.3231 5.43664 76.4266 5.363C76.5447 5.28937 76.6777 5.24519 76.8107 5.24519H77.8449C77.9926 5.24519 78.1404 5.27465 78.2585 5.363C78.362 5.43664 78.4506 5.53972 78.4802 5.65753L79.4109 9.14763C79.4848 9.41271 79.5587 9.66305 79.6325 9.9134C79.7064 10.1637 79.7655 10.4141 79.8394 10.6644C79.8837 10.4141 79.928 10.1637 79.9871 9.9134C80.0462 9.66305 80.1053 9.39798 80.1644 9.13291L80.9918 5.6428C81.0361 5.52499 81.1099 5.42191 81.2134 5.34828C81.3316 5.27465 81.4645 5.23047 81.6123 5.23047L83.4147 5.24519Z" fill="#234465"/>
<path d="M83.9613 6.31903C84.4193 5.9067 84.9512 5.59745 85.5274 5.39128C86.1183 5.18511 86.7389 5.08203 87.3741 5.08203C87.8026 5.08203 88.2458 5.15566 88.6447 5.30292C88.9993 5.45019 89.3391 5.65635 89.605 5.93615C89.871 6.21595 90.0778 6.53992 90.2108 6.90808C90.3585 7.30569 90.4324 7.71802 90.4176 8.14508V13.0047H89.3539C89.1766 13.0194 89.0141 12.99 88.8516 12.9164C88.7186 12.828 88.6152 12.6955 88.5708 12.5335L88.4083 12.1064C88.2163 12.2684 88.0242 12.4157 87.8469 12.5482C87.6696 12.666 87.4776 12.7838 87.2855 12.8722C87.0934 12.9605 86.8866 13.0194 86.665 13.0636C86.4286 13.1078 86.1774 13.1225 85.941 13.1225C85.616 13.1225 85.291 13.0783 84.9659 12.99C84.7 12.9016 84.4489 12.7691 84.2272 12.5777C84.0204 12.3862 83.8579 12.1653 83.7545 11.9003C83.6363 11.6057 83.5772 11.2965 83.592 10.9725C83.592 10.678 83.6658 10.3835 83.7988 10.1184C83.9761 9.79441 84.2272 9.52934 84.5227 9.3379C84.9512 9.07283 85.4239 8.86666 85.9263 8.74885C86.6502 8.57214 87.3889 8.48378 88.1424 8.48378V8.14508C88.1424 7.68857 88.0537 7.36459 87.8617 7.15842C87.6548 6.95226 87.3594 6.83445 87.0639 6.84917C86.8423 6.84917 86.6059 6.87863 86.3843 6.93753C86.2218 6.99643 86.0592 7.05534 85.9115 7.1437C85.7785 7.21733 85.6456 7.29096 85.5126 7.34986C85.3648 7.40877 85.2023 7.43822 85.0398 7.43822C84.8921 7.43822 84.7591 7.39404 84.6261 7.32041C84.5227 7.24678 84.4341 7.1437 84.3602 7.04061L83.9613 6.31903ZM88.1572 9.85331C87.773 9.86804 87.3889 9.89749 87.0048 9.97112C86.7536 10.0153 86.5172 10.0889 86.2956 10.192C86.1479 10.2656 86.0149 10.3687 85.9263 10.5013C85.8524 10.6191 85.8229 10.7369 85.8229 10.8694C85.8229 11.1345 85.8967 11.3259 86.0445 11.429C86.2365 11.5468 86.4581 11.6057 86.6798 11.591C86.9457 11.591 87.2264 11.5468 87.4628 11.429C87.7139 11.2965 87.9503 11.1345 88.1424 10.9136L88.1572 9.85331Z" fill="#234465"/>
<path d="M94.0962 6.43542C94.3031 6.05254 94.5838 5.71383 94.9236 5.44876C95.2338 5.21314 95.618 5.08061 96.0021 5.09533C96.3123 5.08061 96.6078 5.16896 96.859 5.34568L96.7112 7.05392C96.6965 7.14227 96.6522 7.2159 96.5931 7.27481C96.5192 7.31899 96.4453 7.33371 96.3567 7.33371C96.3124 7.33371 96.268 7.33371 96.1942 7.33371L95.9873 7.31899L95.7657 7.28953C95.7066 7.28953 95.6327 7.27481 95.5736 7.27481C95.2782 7.26008 94.9827 7.34844 94.7611 7.53988C94.5395 7.74605 94.3622 8.01112 94.244 8.29092V13.0033H91.9097V5.2426H93.2984C93.4019 5.2426 93.4905 5.2426 93.5939 5.27205C93.6678 5.28677 93.7269 5.31623 93.786 5.3604C93.8451 5.40458 93.8746 5.46349 93.9042 5.52239C93.9337 5.61075 93.9633 5.68438 93.978 5.77274L94.0962 6.43542Z" fill="#234465"/>
<path d="M99.4298 9.54419C99.5037 10.1921 99.6957 10.6634 100.021 10.9579C100.361 11.2524 100.804 11.4144 101.262 11.3997C101.498 11.3997 101.735 11.3702 101.956 11.2966C102.133 11.2377 102.311 11.1641 102.473 11.0757L102.887 10.8548C103.005 10.7959 103.153 10.7517 103.286 10.7517C103.448 10.737 103.611 10.8254 103.7 10.9579L104.379 11.7973C104.158 12.0624 103.892 12.2833 103.596 12.4747C103.33 12.6367 103.035 12.784 102.739 12.887C102.444 12.9901 102.148 13.049 101.853 13.0932C101.572 13.1227 101.291 13.1521 101.011 13.1521C100.479 13.1521 99.9617 13.0638 99.4741 12.887C99.0014 12.7103 98.5729 12.4453 98.2183 12.0918C97.849 11.7237 97.5535 11.2819 97.3614 10.7959C97.1398 10.2216 97.0364 9.6031 97.0512 8.9846C97.0512 8.48391 97.1398 7.98322 97.3171 7.51198C97.6569 6.58423 98.3809 5.84792 99.2968 5.46504C100.257 5.08216 101.336 5.05271 102.326 5.39141C102.739 5.53867 103.123 5.77429 103.434 6.08354C103.744 6.40752 103.995 6.7904 104.158 7.20273C104.335 7.68869 104.423 8.18938 104.423 8.7048C104.423 8.85206 104.423 8.9846 104.394 9.13186C104.379 9.22022 104.35 9.30857 104.305 9.39693C104.276 9.45584 104.217 9.50001 104.143 9.52947C104.054 9.55892 103.965 9.57365 103.877 9.55892L99.4298 9.54419ZM102.355 8.18938C102.355 8.01267 102.326 7.82123 102.281 7.64452C102.237 7.4678 102.163 7.32054 102.045 7.17328C101.927 7.02602 101.779 6.92293 101.616 6.83457C101.41 6.74622 101.203 6.70204 100.981 6.70204C100.597 6.68731 100.228 6.81985 99.9469 7.08492C99.6662 7.39417 99.5037 7.76232 99.4446 8.17466L102.355 8.18938Z" fill="#234465"/>
<path d="M48.9761 25.6515C49.2864 25.6515 49.5966 25.5926 49.8921 25.4895C50.158 25.3865 50.3797 25.2245 50.5717 25.0036C50.7638 24.7827 50.9115 24.5176 51.0002 24.2378C51.1036 23.8991 51.1479 23.5604 51.1479 23.207V16.7422H53.6891V23.207C53.6891 23.8402 53.5856 24.4587 53.364 25.0478C53.1572 25.5926 52.8322 26.0786 52.4333 26.4909C52.0196 26.9033 51.5025 27.2272 50.9558 27.4334C49.6853 27.8899 48.2965 27.8899 47.0259 27.4334C46.4793 27.2272 45.9622 26.9033 45.5485 26.4909C45.1348 26.0786 44.8246 25.5926 44.6178 25.0478C44.3961 24.4587 44.2927 23.8402 44.2927 23.207V16.7422H46.8339V23.207C46.8339 23.5604 46.8782 23.8991 46.9816 24.2378C47.0703 24.5176 47.218 24.7827 47.4101 25.0036C47.6021 25.2097 47.8237 25.3865 48.0897 25.4895C48.3556 25.6074 48.6659 25.6515 48.9761 25.6515Z" fill="#234465"/>
<path d="M57.294 20.7205C57.4417 20.588 57.6042 20.4554 57.7668 20.3376C57.9293 20.2198 58.1066 20.1167 58.2838 20.0284C58.4759 19.94 58.668 19.8811 58.8748 19.8369C59.0964 19.7928 59.3328 19.7633 59.5692 19.7633C59.9533 19.7486 60.3374 19.8369 60.7068 19.9842C61.0318 20.1315 61.3125 20.3376 61.5341 20.6027C61.7705 20.8825 61.933 21.1918 62.0512 21.5452C62.1694 21.9281 62.2285 22.3257 62.2285 22.7233V27.6713H59.8942V22.738C59.909 22.4288 59.8204 22.1048 59.6283 21.8544C59.4362 21.6335 59.1407 21.5157 58.86 21.5305C58.6089 21.5305 58.3725 21.5894 58.1361 21.6924C57.8997 21.8103 57.6781 21.9575 57.486 22.1342V27.6713H55.1517V19.8811H56.5996C56.8655 19.8664 57.1019 20.0284 57.1758 20.264L57.294 20.7205Z" fill="#234465"/>
<path d="M66.3358 17.7602C66.3358 17.9369 66.2915 18.1136 66.2176 18.2756C66.1437 18.4376 66.0403 18.5848 65.9073 18.7026C65.7744 18.8204 65.6266 18.9235 65.4493 18.9972C65.272 19.0708 65.08 19.1002 64.9027 19.1002C64.7254 19.1002 64.5333 19.0708 64.3708 18.9972C64.2083 18.9235 64.0606 18.8204 63.9276 18.7026C63.8094 18.5848 63.706 18.4376 63.6321 18.2756C63.5582 18.1136 63.5287 17.9369 63.5287 17.7602C63.5287 17.5834 63.5582 17.392 63.6321 17.23C63.706 17.068 63.7946 16.9208 63.9276 16.7882C64.0606 16.6557 64.2083 16.5673 64.3708 16.4937C64.5333 16.4201 64.7254 16.3906 64.9027 16.3906C65.0948 16.3906 65.2868 16.4201 65.4493 16.4937C65.6119 16.5673 65.7744 16.6557 65.9073 16.7882C66.0403 16.9208 66.1437 17.068 66.2176 17.23C66.2915 17.392 66.3358 17.5687 66.3358 17.7602ZM66.0994 19.8807V27.6561H63.7651V19.8807H66.0994Z" fill="#234465"/>
<path d="M75.0672 19.8828L72.0533 27.6582H69.9258L66.9119 19.8828H68.8473C68.995 19.8828 69.1428 19.9123 69.261 20.0006C69.3644 20.0743 69.453 20.1773 69.4826 20.2951L70.5611 23.7853C70.6645 24.065 70.7384 24.3448 70.8122 24.6099C70.8861 24.875 70.9452 25.1548 71.0043 25.4199C71.1225 24.8603 71.2702 24.3154 71.4623 23.7853L72.5851 20.2951C72.6295 20.1773 72.7033 20.0743 72.8067 20.0006C72.9249 19.927 73.0579 19.8828 73.1909 19.8828H75.0672Z" fill="#234465"/>
<path d="M77.4902 24.183C77.5641 24.831 77.7562 25.3022 78.0812 25.5967C78.421 25.8913 78.8642 26.0532 79.3222 26.0385C79.5586 26.0385 79.795 26.0091 80.0166 25.9354C80.1939 25.8765 80.3712 25.8029 80.5337 25.7145L80.9474 25.4936C81.0656 25.4347 81.2133 25.3906 81.3463 25.3906C81.5088 25.3758 81.6713 25.4642 81.76 25.5967L82.4396 26.4214C82.218 26.6865 81.952 26.9074 81.6565 27.0988C81.3906 27.2608 81.0951 27.4081 80.7997 27.5111C80.5042 27.6142 80.2087 27.6731 79.9132 27.7173C79.6325 27.7468 79.3518 27.7762 79.0711 27.7762C78.5392 27.7762 78.0221 27.6878 77.5346 27.5111C77.0618 27.3344 76.6333 27.0693 76.2788 26.7159C75.9094 26.3478 75.6139 25.906 75.4219 25.4053C75.2003 24.831 75.0968 24.2125 75.1116 23.594C75.1116 23.0933 75.2003 22.5926 75.3776 22.1214C75.7174 21.1936 76.4413 20.4573 77.3573 20.0744C78.3176 19.6915 79.3961 19.6621 80.386 20.0008C80.7996 20.148 81.1838 20.3837 81.494 20.6929C81.8043 21.0169 82.0554 21.3998 82.218 21.8121C82.3953 22.2981 82.4839 22.7988 82.4839 23.3142C82.4839 23.4614 82.4839 23.594 82.4543 23.7412C82.4396 23.8296 82.41 23.9179 82.3657 24.0063C82.3362 24.0652 82.2771 24.1094 82.2032 24.1388C82.1145 24.1683 82.0259 24.183 81.9373 24.1683L77.4902 24.183ZM80.4155 22.8429C80.4155 22.6662 80.386 22.4748 80.3416 22.2981C80.2973 22.1214 80.2235 21.9741 80.1053 21.8268C79.9871 21.6796 79.8393 21.5765 79.6768 21.4881C79.47 21.3998 79.2631 21.3556 79.0415 21.3556C78.6574 21.3409 78.288 21.4734 78.0073 21.7385C77.7266 22.0477 77.5641 22.4159 77.505 22.8282L80.4155 22.8429Z" fill="#234465"/>
<path d="M85.8523 21.0878C86.0592 20.7049 86.3399 20.3662 86.6797 20.1011C86.9899 19.8655 87.3741 19.733 87.7582 19.7477C88.0684 19.733 88.3639 19.8213 88.6151 19.998L88.4673 21.7063C88.4526 21.7946 88.4083 21.8682 88.3492 21.9271C88.2753 21.9713 88.2014 21.9861 88.1128 21.9861C88.0685 21.9861 88.0241 21.9861 87.9503 21.9713L87.7434 21.9566L87.5366 21.9419C87.4775 21.9419 87.4036 21.9271 87.3445 21.9271C87.049 21.9124 86.7536 22.0008 86.5319 22.1922C86.3103 22.3984 86.133 22.6635 86.0148 22.9433V27.6704H83.6805V19.8802H85.0693C85.1727 19.8802 85.2614 19.8802 85.3648 19.9097C85.4387 19.9244 85.4978 19.9538 85.5568 19.998C85.6159 20.0422 85.6455 20.1011 85.675 20.16C85.7046 20.2484 85.7341 20.322 85.7489 20.4104L85.8523 21.0878Z" fill="#234465"/>
<path d="M94.3623 21.589C94.318 21.6773 94.2441 21.7362 94.1702 21.7951C94.0964 21.8393 94.0077 21.854 93.9043 21.854C93.7861 21.854 93.6827 21.8246 93.5793 21.7804L93.2247 21.6332C93.077 21.5742 92.944 21.5301 92.7962 21.4859C92.619 21.4417 92.4269 21.4123 92.2496 21.4123C92.0132 21.3975 91.7768 21.4564 91.57 21.5742C91.4223 21.6773 91.3336 21.854 91.3336 22.0455C91.3336 22.178 91.3779 22.3106 91.4814 22.3989C91.5995 22.502 91.7473 22.5904 91.895 22.6493C92.0871 22.7229 92.2792 22.7965 92.4712 22.8554C92.6928 22.9143 92.9144 22.988 93.1361 23.0763C93.3577 23.15 93.5793 23.253 93.8009 23.3561C94.0077 23.4592 94.1998 23.5917 94.3771 23.7537C94.5544 23.9157 94.6873 24.1072 94.7907 24.328C94.8942 24.5784 94.9533 24.8582 94.9385 25.138C94.9385 25.5061 94.8646 25.8596 94.7317 26.1983C94.5839 26.5222 94.3771 26.8168 94.1111 27.0377C93.8009 27.288 93.4611 27.4794 93.077 27.5825C92.619 27.7151 92.1462 27.7887 91.6734 27.774C91.4075 27.774 91.1415 27.7445 90.8756 27.7003C90.6097 27.6562 90.3585 27.5825 90.1074 27.4942C89.871 27.4205 89.6346 27.3175 89.413 27.1849C89.2209 27.0818 89.0436 26.9493 88.8663 26.802L89.413 25.9479C89.4721 25.8448 89.5459 25.7712 89.6346 25.7123C89.738 25.6534 89.871 25.6239 89.9892 25.6239C90.1221 25.6239 90.2403 25.6534 90.3585 25.7123L90.7131 25.9037C90.8608 25.9774 91.0086 26.051 91.1563 26.0952C91.3632 26.1541 91.57 26.1983 91.7916 26.1835C91.9393 26.1835 92.1019 26.1688 92.2496 26.1246C92.353 26.0952 92.4564 26.051 92.5451 25.9774C92.6781 25.8596 92.7667 25.6976 92.7667 25.5061C92.7667 25.3589 92.7076 25.2263 92.6042 25.1233C92.486 25.0202 92.3382 24.9318 92.1905 24.8582C91.9984 24.7846 91.8064 24.7109 91.6143 24.652C91.3927 24.5931 91.1711 24.5195 90.9495 24.4459C90.7279 24.3575 90.5063 24.2691 90.2846 24.1513C90.063 24.0335 89.871 23.901 89.7085 23.7243C89.5312 23.5476 89.3834 23.3267 89.2948 23.091C89.1766 22.7965 89.1323 22.4873 89.1323 22.178C89.1323 21.854 89.1914 21.5301 89.3243 21.2355C89.4573 20.941 89.6494 20.6612 89.9005 20.4551C90.1812 20.2194 90.5063 20.028 90.8608 19.9249C91.3041 19.7777 91.7621 19.7188 92.2201 19.7188C92.5008 19.7188 92.7667 19.7482 93.0326 19.7924C93.2838 19.8366 93.535 19.9102 93.7713 19.9985C93.993 20.0869 94.1998 20.19 94.4066 20.3225C94.5839 20.4403 94.7612 20.5729 94.9089 20.7201L94.3623 21.589Z" fill="#234465"/>
<path d="M98.7353 17.7602C98.7353 17.9369 98.691 18.1136 98.6171 18.2756C98.5433 18.4376 98.4398 18.5848 98.3069 18.7026C98.1739 18.8204 98.0262 18.9235 97.8489 18.9972C97.6716 19.0708 97.4795 19.1002 97.3022 19.1002C97.1249 19.1002 96.9329 19.0708 96.7704 18.9972C96.6078 18.9235 96.4601 18.8204 96.3271 18.7026C96.2089 18.5848 96.1055 18.4376 96.0316 18.2756C95.9578 18.1136 95.9282 17.9369 95.9282 17.7602C95.9282 17.5834 95.9578 17.392 96.0316 17.23C96.1055 17.068 96.1942 16.9208 96.3271 16.7882C96.4601 16.6557 96.6078 16.5673 96.7704 16.4937C96.9329 16.4201 97.1249 16.3906 97.3022 16.3906C97.4943 16.3906 97.6863 16.4201 97.8489 16.4937C98.0114 16.5673 98.1739 16.6557 98.3069 16.7882C98.4398 16.9208 98.5433 17.068 98.6171 17.23C98.691 17.392 98.7353 17.5687 98.7353 17.7602ZM98.4842 19.8807V27.6561H96.1498V19.8807H98.4842Z" fill="#234465"/>
<path d="M102.916 27.7713C102.577 27.7713 102.252 27.7272 101.941 27.6094C101.395 27.4179 100.966 26.9761 100.789 26.4313C100.686 26.1367 100.641 25.8128 100.641 25.4888V21.4833H99.9764C99.74 21.498 99.548 21.3213 99.5332 21.0857C99.5332 21.0709 99.5332 21.0415 99.5332 21.0267V20.1137L100.774 19.8781L101.232 17.9784C101.291 17.7428 101.469 17.625 101.749 17.625H102.961V19.8928H104.896V21.4833H102.961V25.3415C102.961 25.5035 103.005 25.6508 103.094 25.7833C103.182 25.9011 103.33 25.9747 103.478 25.96C103.552 25.96 103.626 25.96 103.699 25.9306C103.744 25.9158 103.803 25.9011 103.847 25.8717L103.965 25.8128C104.01 25.798 104.054 25.7833 104.098 25.7833C104.157 25.7833 104.217 25.798 104.276 25.8275C104.32 25.8717 104.364 25.9158 104.409 25.9747L105.118 27.0792C104.808 27.3001 104.468 27.4768 104.098 27.5799C103.699 27.7124 103.301 27.7713 102.916 27.7713Z" fill="#234465"/>
<path d="M113.303 19.8817L109.136 29.6746C109.033 29.9839 108.723 30.1753 108.398 30.1311H106.654L108.161 26.9797L105.044 19.8817H107.098C107.245 19.867 107.393 19.9111 107.511 19.9995C107.6 20.0731 107.674 20.1762 107.733 20.2793L109.018 23.6369C109.136 23.9461 109.24 24.2554 109.314 24.5794L109.476 24.0934C109.535 23.9314 109.594 23.7694 109.653 23.6221L110.806 20.294C110.85 20.1762 110.939 20.0731 111.042 19.9995C111.146 19.9259 111.279 19.8817 111.412 19.8817H113.303Z" fill="#234465"/>
<path d="M36.3738 8.17241L21.1713 0.117188V4.77066L31.1881 10.2488L21.1713 15.3441V19.9386L27.5832 16.6841V22.6188L18.3642 27.1839L18.3494 27.1692L18.3347 27.1839L9.11561 22.6188V16.6841L15.5276 19.9386V15.3293L5.51073 10.2488L15.5276 4.77066V0.117188L0.029541 8.3344V12.0601L4.99364 14.593V25.1517L18.3494 31.7638L31.7052 25.1517V14.593L36.3738 12.2074V8.17241Z" fill="#FFA000"/>
</g>
<defs>
<clipPath id="clip0">
<rect width="113.509" height="32" fill="white"/>
</clipPath>
</defs>
</svg>
